<?xml version="1.0" standalone="no"?>
<!DOCTYPE svg PUBLIC "-//W3C//DTD SVG 20010904//EN"
 "http://www.w3.org/TR/2001/REC-SVG-20010904/DTD/svg10.dtd">
<svg version="1.0" xmlns="http://www.w3.org/2000/svg"
 width="1048.000000pt" height="1024.000000pt" viewBox="0 0 1048.000000 1024.000000"
 preserveAspectRatio="xMidYMid meet">

<g transform="translate(0.000000,1024.000000) scale(0.100000,-0.100000)"
fill="#000000" stroke="none">
<path d="M1410 5120 l0 -3410 3830 0 3830 0 0 3410 0 3410 -3830 0 -3830 0 0
-3410z m1571 3359 c34 -36 37 -55 10 -62 -13 -3 -23 3 -32 19 -20 38 -35 29
-37 -23 -2 -27 -10 -72 -19 -101 -14 -45 -14 -65 -4 -135 6 -45 11 -95 11
-110 0 -15 8 -40 18 -54 9 -15 29 -61 43 -103 15 -41 42 -113 62 -160 19 -47
43 -112 52 -145 10 -33 28 -81 41 -107 12 -26 25 -63 28 -82 3 -19 15 -50 26
-68 11 -18 20 -40 20 -49 0 -9 6 -29 14 -45 34 -69 74 -260 81 -389 10 -165
10 -160 -15 -187 -25 -26 -21 -67 8 -108 38 -52 68 -180 42 -180 -5 0 -10 5
-10 10 0 13 -27 13 -35 0 -8 -13 21 -66 60 -113 18 -21 35 -51 38 -66 3 -16
20 -49 36 -73 30 -45 31 -45 66 -34 34 10 35 11 11 16 -19 4 -38 25 -71 78
-25 41 -45 76 -45 79 0 2 12 3 28 1 22 -2 33 -14 57 -60 30 -57 30 -58 75 -58
28 0 58 -8 80 -21 27 -17 60 -24 140 -30 58 -4 137 -17 175 -28 39 -12 99 -26
135 -32 36 -6 84 -23 108 -38 35 -22 46 -37 66 -91 14 -36 27 -96 29 -135 3
-42 2 -60 -3 -45 -4 14 -8 45 -9 68 -1 34 -5 45 -19 49 -11 2 -28 27 -40 56
-12 28 -24 48 -28 45 -3 -4 1 -19 10 -35 17 -34 15 -65 -7 -108 -15 -30 -14
-67 10 -220 4 -27 5 -81 1 -120 -7 -83 1 -197 15 -207 6 -3 19 -1 29 5 27 17
50 -2 66 -54 13 -46 11 -94 -3 -52 -4 13 -12 19 -21 16 -8 -3 -14 1 -14 11 0
9 5 16 10 16 6 0 10 5 10 11 0 5 -5 7 -10 4 -6 -4 -18 -1 -27 7 -13 10 -15 10
-9 0 4 -7 10 -73 12 -147 4 -116 3 -136 -10 -141 -12 -4 -16 -20 -16 -54 0
-27 -4 -52 -10 -55 -5 -3 -10 -13 -10 -22 0 -8 -13 -35 -30 -60 -16 -24 -30
-47 -30 -52 0 -4 -11 -18 -25 -31 -29 -28 -31 -38 -8 -55 15 -11 15 -18 5 -52
-7 -22 -12 -51 -12 -65 0 -34 -36 -104 -80 -158 -20 -25 -43 -61 -50 -80 -34
-87 -99 -157 -173 -186 -27 -10 -59 -29 -70 -42 -12 -12 -41 -32 -65 -43 -24
-11 -47 -30 -51 -42 -16 -41 -100 -107 -138 -107 -10 0 -40 -23 -67 -50 -27
-28 -58 -50 -70 -50 -11 0 -30 -7 -40 -15 -11 -8 -34 -15 -52 -15 -17 0 -37
-7 -44 -15 -9 -11 -22 -14 -42 -10 -24 6 -28 3 -28 -14 0 -14 8 -23 25 -27 14
-3 25 -9 25 -13 0 -11 -107 -111 -118 -111 -14 0 -20 70 -9 110 12 45 10 294
-3 298 -14 5 -25 3 -26 -5 0 -8 -30 -111 -40 -142 -11 -35 -26 13 -30 96 -5
105 -12 171 -19 183 -3 5 -22 3 -43 -4 -25 -9 -45 -10 -61 -4 -18 6 -42 3 -88
-13 -35 -13 -63 -26 -63 -31 0 -4 -6 -8 -14 -8 -31 0 -23 17 22 47 44 29 52
30 139 29 51 0 93 3 93 8 0 5 7 17 15 26 14 15 13 25 -5 96 -11 43 -20 87 -20
97 0 11 -6 31 -14 45 -7 15 -23 59 -36 97 -12 39 -31 91 -43 118 -19 43 -24
47 -55 47 -27 0 -33 3 -28 16 4 9 2 22 -4 29 -6 8 -7 16 -2 19 5 3 15 -6 22
-19 7 -14 16 -25 20 -25 4 0 26 13 48 30 49 35 63 37 87 10 10 -11 15 -20 10
-20 -4 0 -2 -7 5 -15 21 -26 28 -7 13 37 -9 26 -34 60 -64 89 -27 25 -49 51
-49 57 0 25 23 20 92 -21 41 -24 79 -42 85 -40 17 6 5 64 -15 81 -9 7 -34 17
-54 23 l-38 10 35 33 c19 18 35 40 35 49 0 28 -52 9 -93 -34 -21 -21 -42 -39
-46 -39 -11 0 -21 26 -21 56 0 14 -10 30 -25 40 -22 14 -24 21 -19 54 4 24 2
40 -6 45 -18 11 -24 -3 -10 -21 21 -24 -6 -36 -60 -28 -110 17 -182 7 -201
-27 -10 -20 -9 -21 17 -16 118 22 177 29 183 20 3 -6 16 -13 28 -17 31 -10 73
-45 73 -61 0 -9 -14 -15 -37 -17 l-38 -3 38 -19 c20 -10 40 -23 43 -28 8 -13
-21 -43 -43 -46 -24 -2 -45 -8 -64 -16 -8 -4 -42 -8 -75 -10 -32 -2 -69 -4
-81 -5 -13 0 -23 -6 -23 -12 0 -11 83 -8 185 8 37 5 77 5 83 -2 33 -33 -147
-98 -273 -98 -45 -1 -71 5 -105 24 -40 21 -47 31 -64 84 -10 33 -27 75 -36 93
-15 30 -16 38 -3 75 23 70 35 86 72 98 20 6 41 15 46 19 6 4 35 15 65 25 30
10 61 22 67 27 12 10 32 8 96 -8 16 -4 27 -2 27 4 0 5 -21 13 -47 17 -27 5
-54 9 -61 11 -7 1 -25 11 -39 21 -14 10 -41 28 -60 39 -40 24 -83 93 -83 133
-1 42 -41 248 -59 292 -5 15 -20 29 -33 32 -13 4 -32 21 -42 39 -10 18 -32 47
-47 64 l-29 30 9 86 c9 91 24 123 79 170 38 33 73 79 66 89 -7 12 -101 11
-109 -1 -4 -6 -22 -17 -41 -25 -19 -8 -34 -21 -34 -30 0 -10 -7 -15 -17 -13
-13 3 -17 12 -16 33 l2 30 -40 -42 c-22 -24 -45 -43 -51 -43 -7 0 -7 -4 1 -14
6 -7 8 -21 5 -31 -5 -13 -9 -14 -15 -4 -5 8 -11 1 -17 -22 -9 -29 -10 -30 -11
-9 -1 43 27 120 60 161 24 30 38 39 61 39 18 0 45 11 64 25 24 19 45 25 80 25
28 0 54 6 64 15 14 13 19 13 35 1 17 -12 18 -16 5 -32 -14 -18 -14 -18 7 0 23
19 53 16 53 -6 0 -7 6 -25 14 -40 13 -25 17 -45 32 -168 13 -109 72 -265 105
-275 39 -13 44 11 11 53 -26 33 -33 51 -37 108 -4 38 -10 78 -15 89 -4 11 -13
40 -20 65 -6 25 -16 63 -21 85 -6 22 -13 51 -15 65 -3 13 -14 39 -25 57 -18
29 -29 76 -45 193 -3 25 -9 49 -12 54 -3 5 0 6 6 2 6 -3 16 -22 22 -42 20 -59
55 -113 90 -139 19 -14 35 -25 35 -25 4 0 -14 101 -19 109 -3 5 0 14 8 20 27
22 10 82 -33 122 -25 23 -42 49 -46 71 -3 18 -7 40 -9 48 -1 8 -8 26 -14 40
-6 14 -16 71 -20 128 -12 140 3 293 38 387 4 11 22 66 39 123 18 56 37 102 42
102 5 0 9 9 9 20 0 11 9 46 21 78 35 98 58 186 104 412 27 135 108 305 215
452 52 73 52 73 12 34 -22 -21 -55 -66 -73 -100 -18 -34 -52 -94 -76 -134 -23
-40 -55 -110 -70 -156 -21 -64 -32 -84 -45 -83 -24 2 -23 9 11 109 32 94 162
333 217 397 31 35 41 41 76 41 32 0 46 -6 69 -31z m5 -342 c18 -48 18 -47 -8
-43 -15 2 -27 15 -36 38 -12 32 -12 38 5 57 16 20 18 20 21 4 2 -10 10 -35 18
-56z m23 -138 c11 -17 22 -47 26 -66 6 -33 103 -286 165 -433 33 -76 150 -452
150 -481 0 -10 -7 -16 -17 -15 -14 1 -31 46 -80 206 -34 113 -105 311 -157
440 -53 129 -96 241 -96 248 0 6 5 12 10 12 6 0 10 4 10 10 0 5 -7 7 -15 4 -9
-4 -15 0 -15 10 0 8 -9 30 -20 48 -25 41 -25 48 0 48 12 0 28 -13 39 -31z
m-389 -64 c0 -8 -7 -15 -15 -15 -8 0 -15 -5 -15 -11 0 -5 5 -7 12 -3 8 5 9 0
5 -17 -4 -13 -7 -29 -7 -35 0 -7 -9 -14 -20 -17 -23 -6 -24 -4 -8 62 9 38 16
51 30 51 10 0 18 -7 18 -15z m-34 -140 c-3 -11 -6 -26 -6 -32 0 -7 -7 -13 -15
-13 -8 0 -15 -5 -15 -11 0 -5 5 -7 11 -3 17 10 10 -15 -93 -328 -70 -212 -96
-278 -110 -281 -10 -3 -18 0 -18 6 0 6 45 146 99 312 55 165 103 317 106 337
5 28 11 36 27 35 14 -1 18 -7 14 -22z m-249 -757 c-2 -13 -4 -5 -4 17 -1 22 1
32 4 23 2 -10 2 -28 0 -40z m1693 -55 c16 -9 33 -26 40 -37 10 -19 18 -21 86
-18 49 3 79 0 89 -8 10 -9 15 -9 15 -1 0 7 35 11 109 11 116 0 144 -11 103
-38 -13 -9 -22 -25 -22 -41 -1 -26 -1 -26 -14 5 -17 37 -46 47 -110 35 -25 -4
-47 -6 -50 -4 -2 2 -1 -17 2 -43 3 -34 2 -45 -7 -40 -6 4 -11 14 -11 22 0 9
-13 29 -29 45 -42 42 -83 39 -129 -8 -21 -20 -43 -38 -49 -39 -18 -3 -16 25 2
32 58 23 -66 121 -135 108 -40 -8 -89 -58 -97 -98 -7 -31 -7 -31 -14 -6 -6 20
-7 21 -8 5 -1 -11 -6 -27 -12 -35 -8 -11 -9 -4 -5 29 14 97 63 141 159 141 37
0 69 -6 87 -17z m528 -20 c3 -21 1 -22 -26 -12 -16 5 -33 9 -38 8 -22 -4 -34
2 -34 17 0 12 10 14 48 12 40 -3 47 -6 50 -25z m370 0 c3 -21 1 -22 -26 -12
-16 5 -33 9 -38 8 -22 -4 -34 2 -34 17 0 12 10 14 48 12 40 -3 47 -6 50 -25z
m310 0 c3 -21 1 -22 -26 -12 -16 5 -33 9 -38 8 -22 -4 -34 2 -34 17 0 12 10
14 48 12 40 -3 47 -6 50 -25z m536 11 c11 -28 6 -34 -21 -23 -38 14 -53 5 -54
-33 0 -30 -1 -31 -12 -14 -31 49 -46 57 -108 55 -42 -2 -63 -7 -69 -18 -11
-18 -12 -6 -4 27 6 21 10 22 134 22 107 0 129 -3 134 -16z m-3447 -46 c-2 -13
-4 -5 -4 17 -1 22 1 32 4 23 2 -10 2 -28 0 -40z m1051 -221 c17 -41 15 -47
-13 -34 -13 7 -27 22 -29 34 -3 11 -9 28 -12 37 -4 11 -1 16 10 16 14 0 16 16
18 108 l2 107 6 -120 c3 -66 12 -133 18 -148z m1438 215 c19 -12 34 -49 34
-84 l0 -33 -19 31 c-39 64 -96 81 -144 44 -14 -11 -29 -30 -33 -42 -4 -12 -13
-28 -20 -36 -12 -11 -14 -11 -14 2 0 9 4 16 9 16 13 0 25 60 15 70 -5 5 -25 5
-44 1 -20 -4 -46 -4 -59 1 -19 7 -21 11 -11 23 10 12 39 15 144 15 72 0 136
-4 142 -8z m342 -4 c19 -19 15 -41 -5 -33 -51 22 -72 18 -110 -21 -41 -41 -63
-51 -63 -28 0 23 28 72 47 83 25 14 116 14 131 -1z m244 1 c20 -11 58 -82 57
-109 0 -13 -1 -13 -12 1 -7 9 -18 14 -24 12 -7 -3 -13 2 -13 10 0 23 -58 67
-89 67 -36 0 -67 -23 -91 -68 l-19 -37 -1 32 c0 37 16 84 33 95 18 12 136 9
159 -3z m578 0 c0 -8 4 -8 13 -1 15 13 515 16 533 4 14 -9 34 -46 34 -63 0 -8
-3 -9 -13 0 -8 6 -17 8 -21 4 -3 -4 -13 3 -22 15 -22 31 -57 28 -88 -9 l-26
-31 0 26 c0 19 -5 26 -20 26 -11 0 -20 -5 -20 -11 0 -5 -10 -3 -22 5 -44 31
-100 11 -129 -46 -11 -21 -22 -38 -25 -38 -4 0 -3 20 0 45 7 41 5 45 -13 45
-12 0 -21 -5 -21 -11 0 -5 -10 -3 -22 5 -35 25 -76 20 -109 -13 -16 -16 -29
-36 -29 -45 0 -8 -5 -18 -11 -22 -9 -5 -11 6 -7 38 5 44 5 45 -26 46 -17 0
-47 4 -66 7 -42 8 -84 -20 -106 -69 l-13 -31 -1 38 c0 39 14 76 34 89 19 13
196 9 196 -3z m-334 -51 c9 -14 -23 -38 -53 -38 -29 0 -29 14 -1 34 27 19 44
20 54 4z m-280 -43 c17 -13 13 -14 -46 -14 -59 0 -63 1 -46 14 11 8 32 15 46
15 14 0 35 -7 46 -15z m1144 -7 c39 -15 50 -25 50 -50 0 -25 -36 -23 -43 2 -3
11 -21 27 -41 35 -20 9 -36 20 -36 26 0 12 12 10 70 -13z m-2595 -48 c19 -18
27 -20 44 -11 12 7 21 16 21 21 0 6 18 10 40 10 22 0 40 -4 40 -10 0 -22 -2
-25 -16 -22 -8 2 -28 -8 -45 -22 -35 -29 -58 -32 -98 -12 -40 21 -67 86 -36
86 8 0 16 6 16 13 1 6 4 2 6 -9 2 -12 15 -31 28 -44z m844 -2 c10 20 14 21 26
8 8 -8 15 -18 15 -22 0 -17 -35 -44 -57 -44 -26 0 -63 32 -63 54 0 23 33 24
51 2 16 -20 16 -20 28 2z m361 -1 c13 21 50 21 50 0 0 -19 -43 -57 -65 -57
-23 0 -47 22 -58 52 -9 25 25 29 44 5 17 -20 17 -20 29 0z m800 3 c0 -18 -43
-60 -62 -60 -24 0 -58 27 -58 45 0 21 31 27 45 8 12 -16 13 -15 25 4 12 19 50
22 50 3z m163 -2 c15 13 47 7 47 -9 0 -17 -40 -49 -60 -49 -23 0 -60 33 -60
54 0 20 33 25 46 7 10 -12 15 -13 27 -3z m218 0 c16 20 49 22 49 2 0 -19 -44
-60 -65 -60 -21 0 -65 41 -65 61 0 17 36 14 49 -5 14 -19 15 -19 32 2z m-2147
-4 c6 -16 8 -16 24 0 23 20 52 21 52 1 0 -21 -36 -55 -58 -55 -41 0 -81 51
-49 63 21 9 25 8 31 -9z m2299 -7 c18 -12 32 -28 29 -35 -6 -19 -29 -14 -45 9
-8 11 -21 19 -29 17 -13 -3 -18 3 -18 22 0 17 27 11 63 -13z m-1037 2 c4 -7 1
-10 -7 -7 -8 3 -27 -6 -42 -18 -40 -33 -78 -30 -98 7 -9 17 -6 18 34 13 26 -4
53 -2 63 5 25 14 41 14 50 0z m-3089 -46 c-3 -10 -5 -2 -5 17 0 19 2 27 5 18
2 -10 2 -26 0 -35z m3700 -34 c32 -20 44 -21 88 -3 20 7 20 7 1 -14 -22 -25
-71 -29 -83 -8 -4 8 -19 16 -32 18 -14 1 -26 9 -29 16 -6 18 16 15 55 -9z
m-3690 -57 c17 -11 4 -59 -18 -65 -21 -6 -22 -3 -13 42 7 32 11 36 31 23z
m3219 -88 c63 -16 114 -55 114 -88 0 -21 -32 -14 -54 11 -13 14 -47 31 -86 42
l-65 18 -65 -24 c-36 -13 -70 -31 -76 -38 -6 -8 -31 -22 -55 -30 -24 -9 -69
-35 -99 -58 -30 -23 -74 -55 -97 -71 -24 -16 -43 -32 -43 -36 0 -4 -26 -36
-59 -71 -63 -69 -173 -153 -186 -141 -4 4 -5 -6 -1 -21 9 -36 -1 -67 -21 -67
-10 0 -13 -6 -9 -16 5 -13 3 -14 -6 -7 -18 13 -37 11 -48 -7 -8 -12 -10 -11
-10 6 0 23 26 57 51 66 9 4 20 23 23 42 5 24 16 42 34 53 55 35 132 106 174
160 24 31 61 68 83 82 22 14 65 45 95 67 30 23 72 47 92 54 21 6 44 19 50 28
16 21 122 60 166 61 18 1 62 -6 98 -15z m-2141 -159 c9 -29 -30 -28 -46 2 -10
18 -9 25 4 38 19 18 12 46 -9 38 -8 -3 -14 1 -14 10 0 8 7 17 15 21 8 3 16 13
16 23 1 10 7 -11 14 -47 7 -36 16 -74 20 -85z m4329 130 c3 -8 13 -15 22 -15
21 0 44 -29 43 -55 0 -11 -3 -14 -6 -7 -2 6 -9 9 -14 6 -6 -3 -16 0 -24 6 -8
7 -22 10 -30 6 -9 -3 -15 0 -15 9 0 26 -19 26 -72 -2 -31 -16 -80 -30 -118
-34 -36 -5 -128 -25 -206 -46 -128 -35 -143 -41 -172 -74 -18 -20 -46 -42 -62
-49 -17 -7 -37 -25 -45 -40 -13 -26 -45 -37 -45 -17 0 34 27 77 54 88 17 7 47
30 67 51 34 36 47 41 175 74 77 20 171 41 209 48 39 6 90 23 115 38 51 30 115
36 124 13z m-2234 -10 c0 -2 -23 -11 -52 -21 -29 -9 -59 -25 -68 -34 -8 -10
-35 -25 -59 -34 -25 -10 -61 -30 -80 -46 -20 -15 -45 -29 -55 -31 -11 -2 -18
-8 -17 -13 1 -4 -11 -16 -27 -26 -16 -10 -44 -37 -63 -59 -18 -23 -38 -41 -45
-41 -18 0 -64 -26 -58 -33 3 -3 -10 -20 -30 -37 -20 -18 -34 -36 -31 -40 3 -5
-8 -18 -23 -29 -17 -12 -34 -37 -41 -60 -7 -25 -18 -41 -27 -41 -11 0 -13 -6
-9 -20 4 -11 2 -20 -4 -20 -6 0 -11 5 -11 10 0 6 -4 10 -10 10 -5 0 -10 -17
-10 -37 -1 -21 -17 -78 -36 -128 -47 -117 -51 -147 -27 -182 11 -15 18 -35 16
-44 -3 -14 -8 -15 -28 -5 -28 13 -32 31 -9 44 13 7 10 14 -20 45 l-35 37 29
64 c16 36 36 91 46 123 10 32 26 65 37 74 10 8 27 39 37 69 15 44 29 61 88
109 38 31 97 89 131 129 34 39 66 72 70 72 4 0 37 22 72 48 35 27 84 56 109
66 25 10 53 25 63 34 27 24 127 59 154 54 13 -2 23 -6 23 -7z m2740 -10 c7 -8
18 -15 24 -15 14 0 76 -67 76 -81 0 -22 -50 -7 -70 21 l-21 30 -98 -53 c-96
-51 -171 -107 -171 -126 0 -18 -73 -91 -91 -91 -9 0 -22 -7 -29 -15 -6 -8 -36
-30 -66 -50 -30 -20 -52 -40 -49 -45 7 -11 -61 -34 -75 -25 -19 12 -10 22 42
46 53 24 200 152 229 200 30 47 70 80 138 113 36 18 78 40 92 49 25 17 27 17
33 1 4 -9 9 -14 13 -11 3 4 1 13 -6 21 -18 21 -203 -78 -251 -134 -101 -119
-170 -184 -228 -217 -35 -19 -66 -32 -70 -28 -4 3 13 25 38 48 133 121 200
187 200 197 0 19 71 74 154 118 44 24 85 48 91 53 15 15 81 10 95 -6z m-540
-33 c0 -25 -55 -51 -130 -61 -36 -5 -128 -25 -204 -45 -128 -34 -143 -40 -175
-75 -20 -20 -50 -43 -68 -50 -19 -8 -34 -22 -37 -37 -7 -26 -13 -29 -35 -15
-22 14 1 56 41 77 18 9 47 31 63 49 26 30 47 38 170 71 77 21 166 40 198 42
38 2 74 13 110 33 61 34 67 35 67 11z m-2250 -179 c0 -43 -4 -55 -25 -71 -14
-11 -25 -24 -25 -29 0 -5 -20 -38 -45 -73 -25 -35 -45 -74 -45 -87 0 -27 -7
-29 -32 -6 -25 23 -23 49 11 92 15 20 34 47 41 61 7 14 26 40 43 58 26 27 31
39 28 72 -3 51 4 63 29 47 16 -9 20 -23 20 -64z m-82 -11 c12 -8 7 -42 -7 -42
-4 0 -18 -19 -31 -42 -13 -24 -36 -58 -52 -76 -15 -18 -28 -37 -28 -41 0 -5
-10 -11 -21 -14 -19 -5 -21 -2 -15 23 3 16 21 49 40 74 19 25 38 56 42 68 6
20 41 57 54 58 3 0 11 -4 18 -8z m2167 -70 c8 -36 -10 -82 -31 -82 -14 0 -16
-8 -11 -47 21 -171 21 -184 -12 -246 -20 -36 -35 -83 -41 -125 -5 -37 -13 -83
-19 -102 -6 -19 -11 -71 -11 -115 l-1 -80 -19 23 c-16 19 -19 34 -15 85 7 89
15 148 20 157 5 7 11 49 18 115 1 11 15 42 31 68 23 39 30 64 33 123 3 50 0
80 -7 90 -10 11 -10 17 0 29 10 12 9 16 -4 21 -22 8 -20 21 3 29 20 6 34 37
31 68 -2 29 28 19 35 -11z m1069 12 c3 -9 6 -19 6 -22 0 -7 -172 -3 -179 4 -2
2 -1 10 2 19 9 22 162 22 171 -1z m-1124 -40 c0 -14 -39 -40 -54 -36 -5 2 -13
-3 -18 -10 -6 -8 -7 -2 -3 17 4 16 7 30 8 31 39 24 67 23 67 -2z m-129 6 c23
0 25 -25 3 -34 -9 -4 -17 -5 -18 -4 -1 2 -10 14 -21 27 -18 23 -19 24 -2 18
10 -4 27 -7 38 -7z m-1170 -55 c16 -9 39 -30 49 -48 12 -19 20 -26 20 -16 0
10 16 31 35 48 34 30 39 31 128 31 100 0 149 -18 162 -59 6 -19 9 -17 44 19
l38 40 92 0 c109 0 142 -13 171 -70 11 -21 20 -44 20 -49 0 -19 -34 2 -70 42
-32 35 -41 39 -95 43 -73 6 -123 -15 -145 -63 -8 -18 -21 -33 -27 -33 -7 0
-14 -8 -14 -17 -1 -17 -2 -17 -6 0 -2 9 -11 17 -19 17 -8 0 -14 8 -14 18 0 10
-13 31 -30 47 -57 55 -186 43 -226 -22 -40 -63 -67 -74 -84 -34 -29 72 -108
107 -183 82 -37 -13 -97 -71 -97 -96 0 -8 -9 -13 -20 -12 -25 2 -25 18 0 68
31 60 70 79 163 79 51 0 88 -5 108 -15z m-503 -18 c3 -13 -2 -16 -20 -13 -13
3 -43 5 -67 5 -38 1 -42 3 -31 16 19 23 114 17 118 -8z m210 3 c2 -12 -11 -15
-75 -13 -50 1 -81 -2 -86 -10 -6 -8 -7 -5 -3 6 3 10 6 23 6 28 0 6 33 9 77 7
60 -2 78 -7 81 -18z m2460 -39 c28 -15 62 -68 62 -96 0 -34 -35 -28 -46 7 -13
45 -63 68 -147 68 -75 0 -114 -15 -147 -57 -40 -52 -66 -32 -35 27 15 30 38
46 84 61 36 12 202 5 229 -10z m641 -2 c29 -18 61 -80 60 -116 0 -15 -3 -22
-6 -15 -2 6 -11 12 -19 12 -8 0 -14 7 -14 16 0 9 -15 31 -34 50 -30 30 -40 34
-89 34 -41 0 -63 -6 -91 -25 -34 -23 -36 -23 -36 -5 0 24 -31 33 -88 27 -36
-5 -42 -3 -42 14 0 16 10 19 103 22 153 6 230 2 256 -14z m-6919 -4 c11 -13
11 -20 0 -39 -7 -13 -10 -29 -6 -34 3 -6 2 -13 -3 -17 -6 -3 -2 -28 10 -62 24
-70 24 -72 -2 -66 -15 4 -19 11 -15 25 3 13 -4 28 -20 43 -21 19 -23 25 -11
37 7 7 12 19 9 26 -6 19 8 102 17 102 5 0 14 -7 21 -15z m6538 -15 c2 -10 -5
-16 -18 -16 -11 0 -20 4 -20 9 0 5 -26 8 -57 7 -75 -3 -83 -2 -83 10 0 7 32
10 87 8 69 -2 88 -6 91 -18z m-737 -130 c6 -30 20 -84 31 -118 17 -55 25 -66
53 -78 19 -7 57 -27 85 -44 28 -16 65 -30 82 -30 50 0 25 -11 -30 -13 -28 -2
-48 1 -46 5 3 5 -2 8 -11 8 -9 0 -44 12 -79 27 -54 24 -65 33 -79 68 -28 69
-40 129 -28 133 6 2 11 8 11 14 0 6 -7 8 -15 4 -9 -3 -15 0 -15 9 0 8 5 15 10
15 6 0 11 21 11 48 1 26 3 38 5 27 2 -11 9 -45 15 -75z m-1078 60 c20 -11 48
-20 63 -20 36 0 61 -16 79 -50 21 -41 19 -65 -5 -67 -13 -1 -20 4 -20 17 0 29
-62 75 -127 93 -71 20 -103 47 -57 47 16 0 46 -9 67 -20z m-873 -16 c0 -6 -9
-14 -20 -17 -15 -4 -20 0 -20 13 0 13 7 18 20 17 11 -1 20 -7 20 -13z m538 4
c-2 -6 -39 -22 -82 -35 -63 -20 -81 -30 -94 -53 -9 -17 -20 -30 -24 -30 -5 0
-8 -7 -8 -16 0 -13 -3 -14 -14 -5 -7 6 -33 14 -58 17 -44 6 -45 6 -51 -25 -10
-50 -72 -55 -101 -8 -8 13 -7 20 4 27 12 8 12 10 -4 10 -18 0 -18 1 -4 13 9 6
18 19 21 27 3 9 6 4 6 -11 1 -14 7 -34 15 -45 14 -18 15 -17 31 20 l16 39 65
-7 c47 -5 64 -3 64 6 0 24 43 58 74 58 17 1 42 7 56 15 31 18 93 20 88 3z
m-4470 -41 c2 -16 -5 -38 -18 -54 -13 -16 -17 -29 -11 -31 6 -2 11 -9 11 -15
0 -7 7 -21 15 -31 14 -18 15 -18 25 9 l10 27 26 -38 c15 -22 32 -42 39 -47 27
-15 106 -168 116 -224 6 -31 24 -95 40 -142 16 -47 29 -92 29 -98 0 -23 -132
-7 -186 22 -26 14 -53 25 -59 25 -21 0 -38 -28 -29 -47 4 -10 8 -29 8 -43 1
-18 7 -26 24 -28 21 -3 32 -22 13 -22 -15 0 -22 -33 -9 -41 9 -6 8 -12 -5 -27
-14 -16 -15 -21 -4 -25 7 -3 33 13 58 35 52 47 76 58 130 58 51 0 82 -16 75
-38 -3 -9 -2 -23 3 -31 6 -9 -8 -29 -47 -67 -31 -30 -61 -54 -67 -54 -16 0
-105 -59 -105 -69 0 -19 35 -21 82 -5 57 19 67 14 98 -52 l22 -44 -46 -45
c-25 -25 -49 -45 -54 -45 -11 0 -70 -58 -90 -88 -11 -16 -15 -47 -14 -100 0
-42 -5 -100 -13 -127 -13 -46 -19 -90 -29 -220 -2 -22 -4 -43 -6 -47 -1 -5 -3
-16 -4 -25 -1 -10 -9 -34 -18 -53 -10 -19 -23 -63 -31 -97 -12 -51 -12 -67 -2
-87 7 -14 10 -28 7 -32 -4 -4 -2 -4 4 -1 29 17 39 -40 12 -67 -16 -15 -65 -18
-74 -5 -3 5 -9 7 -14 4 -4 -3 -13 2 -20 10 -7 8 -17 15 -23 15 -15 0 -57 41
-57 55 0 7 -11 21 -25 31 -26 20 -45 68 -45 118 0 16 -8 38 -17 48 -15 17 -15
22 -3 41 12 20 12 21 -3 8 -15 -12 -18 -10 -26 10 -5 13 -6 28 -3 33 3 5 0 6
-7 2 -7 -5 -23 5 -40 23 -16 17 -32 31 -35 31 -17 0 -79 75 -96 116 -30 69
-27 175 6 256 35 83 66 149 80 168 6 8 14 42 18 75 8 84 15 117 28 132 8 10 8
33 -1 83 -14 86 -4 210 17 226 9 6 17 20 18 30 2 11 6 37 9 60 6 35 4 44 -19
69 -15 16 -36 28 -51 28 -40 0 -48 19 -40 97 4 38 11 70 15 70 4 0 10 9 13 20
9 33 -1 23 -34 -35 -17 -30 -35 -53 -39 -50 -5 3 -13 -3 -19 -12 -15 -26 -13
-10 5 44 23 67 87 157 131 184 20 13 59 43 86 67 49 43 89 65 177 95 63 22 84
18 88 -16z m5436 -84 c-58 -108 -89 -85 -33 25 29 55 33 59 47 45 14 -14 13
-21 -14 -70z m839 72 c-1 -5 -36 -18 -78 -27 -94 -22 -111 -31 -135 -71 -11
-18 -20 -26 -20 -19 0 7 -5 10 -10 7 -6 -4 -8 -10 -6 -14 3 -4 1 -13 -5 -21
-7 -13 -9 -13 -9 0 -1 68 46 130 99 130 20 1 47 7 61 15 27 16 106 16 103 0z
m-3553 -24 c0 -13 -47 -145 -65 -183 -10 -20 -22 -35 -26 -32 -4 2 -13 -4 -19
-13 -21 -35 1 49 31 116 16 35 29 67 29 72 0 26 21 58 35 53 8 -3 15 -9 15
-13z m1031 -21 c5 0 9 -6 9 -13 0 -11 -79 -47 -102 -47 -14 0 -8 31 7 36 8 4
15 14 16 23 0 10 2 11 6 4 7 -18 43 2 44 25 1 11 3 9 6 -5 2 -13 9 -23 14 -23z
m159 -40 c17 -40 11 -43 -24 -13 -23 20 -26 27 -15 34 22 13 26 11 39 -21z
m818 0 c15 -12 40 -20 63 -20 22 0 39 -4 39 -8 0 -17 -26 -32 -56 -32 -24 0
-39 8 -56 30 -24 30 -25 31 -72 20 -47 -10 -66 -7 -66 11 0 33 105 32 148 -1z
m-258 -9 c0 -4 -7 -17 -16 -29 -12 -17 -24 -22 -47 -20 -45 4 -50 36 -8 44 17
4 34 10 37 15 5 9 34 1 34 -10z m-710 0 c0 -14 -25 -31 -57 -37 -48 -9 -48 13
-1 29 52 19 58 19 58 8z m1880 -39 c0 -36 -17 -17 -18 20 -1 23 2 28 8 18 6
-8 10 -25 10 -38z m816 23 c10 -40 0 -51 -23 -26 -12 13 -26 20 -32 16 -12 -7
-15 17 -4 28 3 4 17 7 29 7 17 0 25 -7 30 -25z m-6296 -30 c5 -14 16 -28 24
-31 9 -3 18 -16 22 -27 3 -12 13 -29 21 -38 23 -28 53 -93 45 -100 -4 -4 -17
-3 -30 2 -17 6 -22 14 -18 27 4 12 -3 27 -19 42 -14 13 -25 33 -25 46 0 12 -7
24 -15 28 -8 3 -15 12 -15 19 0 8 -11 19 -25 25 -32 15 -32 32 0 32 18 0 28
-7 35 -25z m6120 9 c0 -35 -59 -67 -98 -53 -33 12 -28 39 7 39 17 0 33 5 36
10 6 10 55 14 55 4z m-3346 -30 c10 -25 6 -41 -5 -22 -5 10 -16 15 -24 12 -8
-4 -15 -2 -15 4 0 9 15 19 31 21 4 1 10 -6 13 -15z m1674 -24 c11 -18 10 -20
-8 -20 -11 0 -20 2 -20 4 0 2 -3 11 -6 20 -9 23 19 20 34 -4z m772 6 c0 -8 -4
-18 -10 -21 -5 -3 -10 3 -10 14 0 12 5 21 10 21 6 0 10 -6 10 -14z m17 -8 c-3
-8 -6 -5 -6 6 -1 11 2 17 5 13 3 -3 4 -12 1 -19z m-1703 -46 c4 -3 -33 -31
-83 -63 -82 -53 -96 -59 -144 -59 -32 0 -61 -6 -76 -16 -32 -23 -117 -44 -171
-43 -37 1 -41 2 -20 9 29 9 6 13 -27 4 -13 -4 -20 -11 -16 -20 6 -17 -1 -18
-30 -2 -21 11 -21 11 -2 20 13 5 3 6 -27 3 -27 -4 -49 -2 -53 5 -3 5 -21 10
-40 10 -27 0 -39 8 -65 40 -26 33 -30 43 -20 55 10 12 9 15 -4 15 -22 0 -20
13 4 28 18 11 20 10 20 -12 0 -13 4 -26 8 -28 4 -1 18 -17 30 -35 20 -29 28
-32 96 -38 83 -8 177 8 215 37 16 12 41 18 80 18 48 0 64 6 116 39 56 37 65
39 130 38 39 0 74 -3 79 -5z m2606 -22 c0 -28 -29 -39 -116 -47 -95 -8 -96 11
-2 22 48 6 66 13 81 31 20 26 37 24 37 -6z m-910 11 c0 -25 -21 -61 -36 -61
-12 0 -15 6 -10 23 3 12 6 28 6 35 0 6 9 12 20 12 11 0 20 -4 20 -9z m707 -47
c-3 -3 -12 -4 -19 -1 -8 3 -5 6 6 6 11 1 17 -2 13 -5z m-3423 -59 c-4 -8 -8
-15 -10 -15 -2 0 -4 7 -4 15 0 8 4 15 10 15 5 0 7 -7 4 -15z m-33 -18 c-10 -9
-11 -8 -5 6 3 10 9 15 12 12 3 -3 0 -11 -7 -18z m2696 -39 c-2 -13 -4 -5 -4
17 -1 22 1 32 4 23 2 -10 2 -28 0 -40z m-5039 4 c3 -20 0 -23 -20 -20 -15 2
-24 11 -26 26 -3 20 0 23 20 20 15 -2 24 -11 26 -26z m2742 -8 c0 -11 -6 -14
-22 -9 -39 12 -44 25 -10 25 22 0 32 -5 32 -16z m-2735 -34 c4 -6 1 -17 -5
-26 -10 -11 -16 -12 -26 -3 -11 9 -11 15 -3 25 14 17 25 18 34 4z m12 -76 c-9
-9 -28 6 -21 18 4 6 10 6 17 -1 6 -6 8 -13 4 -17z m1941 -39 l0 -30 -11 28
c-6 15 -17 27 -24 27 -18 0 -16 10 5 26 14 10 18 10 24 -4 4 -9 6 -30 6 -47z
m-1928 -15 c0 -5 -7 -7 -15 -4 -8 4 -15 8 -15 10 0 2 7 4 15 4 8 0 15 -4 15
-10z m19 -62 c5 -13 20 -39 33 -59 14 -19 28 -48 32 -63 6 -23 4 -27 -11 -24
-12 2 -21 18 -28 51 -6 26 -15 51 -21 55 -11 7 -34 45 -34 56 0 16 22 3 29
-16z m1 -148 c0 -11 -6 -20 -14 -20 -9 0 -12 7 -9 20 3 11 9 20 14 20 5 0 9
-9 9 -20z m-783 -67 c-3 -10 -5 -2 -5 17 0 19 2 27 5 18 2 -10 2 -26 0 -35z
m2740 -5 c-2 -13 -4 -5 -4 17 -1 22 1 32 4 23 2 -10 2 -28 0 -40z m-2697 -88
c0 -22 -14 -40 -31 -40 -20 0 -22 4 -13 36 4 15 11 20 25 17 10 -3 19 -9 19
-13z m-47 -109 c2 -10 1 -25 -4 -32 -6 -10 -9 -4 -9 19 0 36 5 42 13 13z m17
-66 c0 -6 -17 -47 -38 -91 -21 -43 -49 -105 -61 -137 -13 -32 -26 -55 -29 -52
-3 2 -12 -1 -20 -7 -26 -22 -4 47 57 179 42 90 61 121 74 120 9 -1 17 -6 17
-12z m713 -69 c3 -8 15 -12 30 -9 17 3 29 -1 40 -17 11 -17 26 -21 70 -23 31
-1 59 -6 63 -9 4 -4 -5 -23 -20 -42 -14 -19 -26 -39 -26 -45 0 -6 -9 -20 -21
-32 -27 -27 -132 -193 -179 -284 -38 -72 -52 -154 -32 -178 6 -7 12 -70 13
-140 3 -134 18 -258 39 -317 20 -55 60 -133 81 -156 19 -20 19 -21 -6 -32 -37
-17 -53 -15 -60 8 -3 11 -11 20 -17 20 -6 0 -5 -7 3 -17 13 -15 12 -15 -8 -3
-11 8 -19 20 -16 27 3 8 -3 13 -17 13 -17 0 -21 5 -18 24 2 15 -6 34 -21 50
-24 26 -52 26 -30 0 6 -7 16 -11 22 -7 5 3 7 1 4 -5 -9 -14 -34 -9 -58 11 -10
9 -23 17 -28 17 -5 0 -32 22 -60 49 -36 34 -51 56 -51 75 0 14 6 26 13 26 7 0
12 14 13 33 0 35 9 81 18 96 3 5 -1 22 -9 38 -13 26 -13 38 1 104 21 101 22
122 11 137 -7 8 -5 12 6 12 11 0 15 7 12 20 -2 11 -1 19 3 16 7 -4 32 18 33
31 1 5 5 17 9 28 4 11 6 65 4 120 -3 99 -3 100 31 155 19 30 35 58 35 63 0 4
-11 7 -25 7 -19 0 -23 4 -18 18 10 29 45 62 95 89 27 15 48 30 48 35 0 13 17
9 23 -6z m317 -72 c0 -8 -7 -14 -15 -14 -8 0 -15 9 -15 20 0 13 5 18 15 14 8
-4 15 -12 15 -20z m63 -35 c-8 -8 -14 -6 -22 9 -13 25 -2 37 18 17 11 -11 12
-18 4 -26z m-69 -4 c3 -9 0 -15 -9 -15 -8 0 -15 7 -15 15 0 8 4 15 9 15 5 0
11 -7 15 -15z m151 -25 c-2 -4 -16 -5 -30 -2 -24 4 -24 5 -8 17 18 14 48 1 38
-15z m-82 -10 c10 0 15 -4 12 -10 -10 -16 -51 -12 -66 7 -13 15 -11 16 11 10
14 -4 33 -7 43 -7z m-46 -40 c47 -18 53 -18 61 -4 11 19 102 33 102 16 0 -16
-21 -26 -55 -28 -36 -1 -128 -26 -135 -36 -17 -22 -84 -58 -100 -53 -24 8 -15
32 13 38 13 2 6 5 -15 6 -41 1 -47 11 -22 35 20 20 73 21 80 1 4 -8 15 -15 25
-15 10 0 19 7 19 15 0 9 -9 15 -25 15 -16 0 -25 6 -25 15 0 20 15 19 77 -5z
m191 -57 c-2 -13 -14 -19 -43 -21 -41 -3 -64 -10 -127 -43 -44 -23 -64 -24
-71 -5 -7 17 16 28 39 19 10 -4 17 1 21 16 3 13 13 21 27 21 11 1 32 7 46 15
14 8 44 14 68 15 36 0 43 -3 40 -17z m20 -75 c-2 -18 -12 -24 -43 -30 -42 -7
-105 -22 -142 -33 -13 -4 -23 -5 -23 -2 0 13 48 57 62 57 9 0 31 7 49 15 19 8
49 14 67 15 29 0 33 -3 30 -22z m-334 -121 c5 -55 7 -229 2 -234 -2 -2 -10 43
-19 99 -9 57 -19 116 -22 131 -7 38 2 67 20 61 8 -3 15 -27 19 -57z m362 48
c4 -8 3 -23 0 -32 -5 -12 -9 -14 -18 -5 -14 14 -54 16 -62 3 -3 -5 -22 -9 -42
-9 -20 0 -39 -5 -43 -10 -4 -6 -19 -16 -35 -22 -23 -8 -31 -8 -38 2 -15 24 -8
38 20 38 15 0 36 7 47 16 12 8 30 12 45 9 15 -3 33 1 45 9 26 20 74 20 81 1z
m-273 -10 c1 -5 -6 -11 -15 -13 -11 -2 -18 3 -18 13 0 17 30 18 33 0z m-33
-46 c0 -5 -4 -9 -10 -9 -5 0 -10 7 -10 16 0 8 5 12 10 9 6 -3 10 -10 10 -16z
m320 -24 c23 -28 -4 -40 -94 -40 -51 0 -90 -6 -99 -13 -15 -13 -47 -7 -47 9 0
5 8 9 18 9 10 0 22 3 26 8 15 14 102 40 142 41 27 1 46 -5 54 -14z m-253 -91
c-3 -4 -14 -3 -24 0 -15 6 -15 8 -3 16 16 10 39 -4 27 -16z m143 7 c8 -6 18
-7 24 -4 5 4 34 8 63 10 42 3 53 1 53 -10 0 -21 -22 -27 -104 -27 -75 0 -132
-19 -143 -46 -6 -16 -13 -17 -31 -5 -11 6 -8 14 11 35 13 14 31 26 39 26 9 0
21 7 28 15 14 17 38 19 60 6z m140 -151 c0 -15 -29 -32 -52 -29 -13 1 -31 -1
-40 -5 -9 -4 -22 -9 -30 -10 -7 -2 -24 -8 -38 -13 -22 -9 -68 -8 -78 2 -9 8
11 25 29 25 11 0 22 7 26 16 4 10 16 14 37 13 17 -2 45 4 61 12 30 15 85 8 85
-11z m-314 -135 c7 -17 6 -18 -8 -8 -8 7 -18 10 -22 6 -4 -4 -11 -1 -16 7 -14
21 -12 30 5 30 11 0 15 14 16 58 l2 57 7 -65 c4 -36 11 -74 16 -85z m315 73
c21 -33 -40 -51 -73 -21 -17 16 -17 17 4 28 27 14 58 11 69 -7z m-101 -27 c0
-9 -33 -21 -59 -21 -11 0 -11 3 -1 15 13 16 60 21 60 6z m-87 -18 c-7 -2 -19
-2 -25 0 -7 3 -2 5 12 5 14 0 19 -2 13 -5z m195 -40 c2 -7 -4 -16 -12 -19 -19
-7 -49 14 -40 28 8 13 46 6 52 -9z m-108 -3 c0 -5 -6 -10 -14 -10 -8 0 -18 5
-21 10 -3 6 3 10 14 10 12 0 21 -4 21 -10z m-160 -10 c0 -5 -9 -10 -20 -10
-11 0 -20 5 -20 10 0 6 9 10 20 10 11 0 20 -4 20 -10z m95 0 c9 -14 -45 -34
-58 -21 -5 5 -6 14 -3 20 9 14 53 14 61 1z m173 -53 c9 -7 9 -13 1 -23 -15
-18 -34 -18 -49 1 -12 14 -15 14 -30 0 -10 -9 -24 -13 -34 -9 -9 4 -36 1 -61
-6 -49 -14 -73 -7 -54 16 6 8 21 14 33 14 12 0 26 4 32 9 21 21 135 20 162 -2z
m-321 -64 c-3 -10 -5 -2 -5 17 0 19 2 27 5 18 2 -10 2 -26 0 -35z m63 37 c0
-5 -9 -10 -20 -10 -11 0 -20 5 -20 10 0 6 9 10 20 10 11 0 20 -4 20 -10z m263
-37 c16 -15 -17 -33 -49 -27 -20 4 -34 2 -34 -4 0 -18 -29 -21 -57 -7 -24 13
-29 13 -36 0 -9 -17 -43 -20 -52 -5 -3 6 2 13 12 16 10 3 27 10 38 15 11 5 52
10 90 12 39 2 73 4 76 5 3 1 9 -1 12 -5z m-253 -27 c0 -3 -4 -8 -10 -11 -5 -3
-10 -1 -10 4 0 6 5 11 10 11 6 0 10 -2 10 -4z m-30 -10 c0 -3 -4 -8 -10 -11
-5 -3 -10 -1 -10 4 0 6 5 11 10 11 6 0 10 -2 10 -4z m-218 -54 c19 -12 24 -22
18 -32 -4 -7 -8 -33 -8 -58 0 -54 -5 -59 -30 -32 -31 33 -41 140 -14 140 4 0
19 -8 34 -18z m386 0 c2 -7 -5 -16 -17 -19 -23 -6 -29 -33 -7 -33 9 0 12 -8 8
-25 -2 -14 -10 -25 -17 -25 -19 0 -38 -27 -25 -35 18 -11 11 -31 -16 -44 -31
-14 -50 -5 -33 15 6 8 13 28 15 46 2 17 9 37 15 44 6 8 8 26 4 44 -6 25 -3 32
17 40 29 12 50 9 56 -8z m85 -62 c9 -13 17 -35 17 -47 0 -13 5 -23 10 -23 6 0
10 -13 10 -30 0 -21 4 -28 14 -24 21 8 25 -8 10 -36 -8 -14 -14 -19 -14 -11 0
7 -12 25 -26 38 -16 14 -24 31 -21 42 2 10 -3 23 -14 30 -11 6 -19 19 -19 28
0 9 -7 25 -17 35 -14 16 -15 21 -2 44 l14 26 10 -24 c5 -13 18 -34 28 -48z
m57 -3 c7 -21 20 -42 31 -45 18 -7 18 -8 0 -36 l-19 -28 -36 73 c-20 40 -36
74 -36 75 0 6 36 10 41 5 4 -3 12 -23 19 -44z m-240 -16 c-1 -16 -19 -33 -29
-27 -6 4 -11 3 -11 -3 0 -5 5 -11 11 -13 20 -7 0 -47 -21 -45 -22 1 -25 14
-11 49 5 13 12 31 15 40 3 11 12 15 25 11 12 -3 21 -8 21 -12z m-220 -10 c0
-5 -7 -14 -15 -21 -12 -10 -15 -10 -15 2 0 8 3 18 7 21 9 10 23 9 23 -2z m101
-68 c21 -64 22 -65 35 -42 7 13 13 19 14 12 0 -6 9 -15 21 -18 l21 -7 -20 -21
c-12 -12 -26 -35 -32 -51 -15 -40 -24 -28 -66 83 -40 106 -40 111 -15 111 15
0 24 -15 42 -67z m159 -64 c0 -5 -15 -16 -34 -24 -19 -8 -36 -20 -39 -27 -3
-9 -7 -7 -13 6 -5 14 -1 24 15 38 25 19 71 25 71 7z m326 -36 c4 -16 14 -37
24 -48 10 -11 24 -33 31 -50 11 -23 26 -34 68 -48 45 -15 55 -15 65 -4 34 42
57 48 171 41 120 -7 326 8 416 32 92 23 169 18 169 -12 0 -11 -12 -14 -47 -13
-27 1 -79 -6 -118 -15 -51 -13 -131 -19 -294 -23 l-224 -6 -36 -32 -36 -32
-76 23 c-68 21 -78 27 -89 56 -7 18 -23 44 -34 57 -15 17 -17 25 -8 28 6 3 12
9 12 14 0 4 -6 6 -13 3 -7 -2 -17 8 -24 26 -11 28 -10 30 13 30 18 0 25 -7 30
-27z m-51 -13 c9 -14 -4 -52 -16 -45 -12 8 -12 55 0 55 6 0 13 -5 16 -10z
m-312 -16 c15 -15 -8 -34 -42 -34 l-36 0 25 20 c26 20 42 24 53 14z m213 -30
c13 -11 15 -17 6 -20 -6 -3 -10 -10 -6 -15 3 -5 -2 -9 -10 -9 -9 0 -15 6 -13
13 1 9 -21 13 -82 15 -75 3 -82 4 -65 17 27 20 144 20 170 -1z m142 -41 c2
-16 -5 -26 -27 -37 -16 -9 -33 -16 -36 -16 -7 0 3 58 12 73 10 17 48 2 51 -20z
m-487 -55 l-30 -53 -93 -6 c-93 -7 -128 -15 -248 -62 -162 -63 -356 -197 -623
-430 -83 -73 -127 -95 -127 -63 0 16 140 139 330 291 217 173 434 276 627 297
105 12 107 13 126 45 13 23 26 33 44 33 l25 0 -31 -52z m509 -6 c0 -5 -9 -19
-20 -32 -11 -13 -20 -25 -20 -27 0 -2 9 -1 20 2 24 8 26 -5 5 -44 -8 -16 -12
-31 -9 -34 3 -3 -4 -10 -15 -16 -11 -6 -18 -17 -15 -25 6 -15 -42 -50 -51 -36
-3 5 3 17 14 27 18 18 22 36 24 120 1 32 7 44 27 57 28 18 40 20 40 8z m351
-127 c32 -25 60 -45 63 -45 3 0 24 16 46 36 39 36 40 36 102 29 l63 -8 115
-111 c171 -166 238 -221 290 -235 25 -7 63 -25 85 -40 22 -16 57 -34 78 -40
20 -7 42 -21 47 -32 9 -16 7 -19 -14 -19 -30 0 -109 33 -143 60 -14 11 -48 27
-76 35 -60 18 -105 53 -267 211 -167 163 -196 174 -270 99 -26 -26 -50 -43
-59 -40 -19 7 -160 118 -161 127 0 3 8 9 18 11 9 3 19 5 21 6 3 0 31 -19 62
-44z m-924 -27 c-3 -8 -6 -5 -6 6 -1 11 2 17 5 13 3 -3 4 -12 1 -19z m93 -68
c0 -11 -4 -20 -10 -20 -5 0 -10 9 -10 20 0 11 5 20 10 20 6 0 10 -9 10 -20z
m315 -10 c3 -5 -1 -10 -10 -10 -9 0 -13 5 -10 10 3 6 8 10 10 10 2 0 7 -4 10
-10z m75 -35 c-14 -16 -40 -20 -40 -6 0 5 7 17 16 26 22 21 44 4 24 -20z m-89
6 c-9 -6 -10 -10 -2 -16 9 -5 9 -10 0 -21 -10 -13 -15 -12 -31 3 -18 16 -18
18 -2 30 10 7 25 13 33 13 13 0 13 -2 2 -9z m-262 -10 c17 -11 7 -41 -13 -41
-19 0 -28 14 -20 34 7 18 13 19 33 7z m1028 -103 c57 -74 125 -213 152 -309
27 -95 27 -109 1 -102 -23 6 -25 14 -7 32 10 10 9 12 -2 9 -9 -2 -21 20 -36
67 -32 102 -88 206 -157 293 -53 67 -58 77 -42 83 24 8 35 -1 91 -73z m-697
45 c0 -7 -10 -23 -22 -35 -13 -13 -28 -32 -33 -43 -12 -22 -36 -27 -42 -8 -3
7 7 18 21 24 19 9 26 20 26 39 0 15 2 29 5 31 10 10 45 4 45 -8z m-386 -21 c2
-4 -16 -21 -42 -37 -26 -16 -76 -51 -111 -79 -90 -70 -206 -135 -266 -148 -27
-6 -62 -17 -77 -24 -35 -18 -68 -18 -68 1 0 19 40 39 110 55 55 13 203 92 250
134 88 80 186 127 204 98z m116 -32 c13 -8 13 -10 -2 -10 -9 0 -20 5 -23 10
-8 13 5 13 25 0z m59 -34 c6 -7 29 -13 51 -13 51 0 58 -7 35 -33 -23 -25 -32
-25 -40 -1 -4 13 -12 17 -25 14 -23 -6 -50 12 -50 33 0 18 14 18 29 0z m174
-92 c16 -19 27 -37 25 -40 -9 -8 -73 42 -76 59 -6 29 21 19 51 -19z m-179 -26
c-12 -6 -27 -21 -33 -35 -7 -14 -15 -23 -18 -19 -3 3 -13 0 -21 -7 -13 -10
-14 -8 -8 13 17 58 25 66 64 61 33 -3 35 -5 16 -13z m60 -99 c-3 -5 1 -6 9 -4
9 4 23 -27 50 -114 20 -66 37 -123 37 -128 0 -5 -8 -9 -18 -10 -16 -1 -26 22
-60 132 -23 73 -42 135 -42 139 0 3 7 3 15 0 8 -4 12 -10 9 -15z m283 -123
c-3 -8 -11 -32 -18 -55 -8 -29 -18 -41 -31 -41 -22 0 -22 4 -2 63 12 35 21 47
36 47 13 0 18 -5 15 -14z m783 -116 c16 -6 31 -18 34 -26 8 -20 -53 -19 -82 2
-25 17 -29 34 -7 34 10 0 16 11 17 33 l1 32 4 -32 c3 -23 12 -34 33 -43z
m-609 -54 c147 -118 209 -187 271 -296 55 -96 118 -216 118 -223 0 -2 -11 -2
-25 0 -25 5 -47 31 -60 73 -4 13 -27 56 -51 94 -24 39 -44 76 -44 82 0 12
-231 239 -299 294 -41 33 -53 60 -27 60 8 0 60 -38 117 -84z m-340 -58 c9 -31
20 -78 24 -105 4 -26 13 -60 21 -75 19 -36 18 -38 -10 -38 -33 0 -56 52 -32
75 18 18 13 35 -10 35 -16 0 -19 16 -4 25 14 9 12 25 -3 25 -8 0 -19 19 -26
43 -7 23 -15 50 -18 60 -4 15 0 18 18 15 18 -2 26 -14 40 -60z m778 -28 c23 0
41 -2 41 -4 0 -2 3 -11 6 -19 10 -26 -76 -9 -106 20 -23 23 -23 24 -3 14 12
-6 40 -11 62 -11z"/>
<path d="M2526 7137 c3 -10 9 -15 12 -12 3 3 0 11 -7 18 -10 9 -11 8 -5 -6z"/>
<path d="M2529 7105 c-1 -5 -1 -22 -1 -38 -1 -19 -5 -26 -16 -25 -8 2 -17 -3
-20 -11 -3 -10 0 -12 12 -8 10 4 25 7 34 7 9 0 26 7 37 16 16 12 17 16 6 23
-8 5 -21 7 -29 3 -9 -3 -13 -1 -9 4 3 6 2 16 -4 24 -5 8 -9 11 -10 5z"/>
<path d="M3125 6945 c-52 -37 -132 -77 -177 -88 -33 -9 -108 -93 -108 -122 0
-28 36 -61 78 -70 68 -14 172 82 259 241 18 34 20 45 10 58 -11 15 -17 13 -62
-19z"/>
<path d="M2425 6901 c-4 -7 -1 -19 7 -29 34 -43 45 -56 73 -85 17 -18 39 -43
50 -57 25 -32 123 -80 162 -80 30 0 51 16 71 56 16 30 -20 94 -67 121 -33 19
-195 69 -262 80 -15 3 -30 0 -34 -6z"/>
<path d="M2782 6438 c-6 -6 -8 -16 -3 -22 4 -6 13 -38 20 -71 7 -33 17 -65 23
-72 10 -13 11 -50 5 -244 -5 -145 -9 -160 -71 -249 -54 -78 -67 -110 -45 -110
19 0 127 110 133 137 4 13 18 47 31 75 35 72 36 207 2 303 -8 22 -12 51 -10
65 5 31 -31 148 -55 178 -14 17 -20 20 -30 10z"/>
<path d="M2634 6365 c-4 -9 1 -24 10 -34 9 -10 16 -22 16 -28 0 -6 6 -16 13
-22 11 -9 14 -6 13 14 -1 14 -7 30 -14 37 -7 7 -12 18 -12 24 0 20 -20 27 -26
9z"/>
<path d="M2248 6183 c6 -2 18 -2 25 0 6 3 1 5 -13 5 -14 0 -19 -2 -12 -5z"/>
<path d="M3039 6159 c-1 -2 -3 -25 -4 -51 -1 -35 2 -45 10 -38 12 10 14 74 2
86 -4 4 -8 5 -8 3z"/>
<path d="M3540 6136 c0 -3 9 -10 20 -16 11 -6 20 -8 20 -6 0 3 -9 10 -20 16
-11 6 -20 8 -20 6z"/>
<path d="M3668 6083 c12 -2 30 -2 40 0 9 3 -1 5 -23 4 -22 0 -30 -2 -17 -4z"/>
<path d="M2335 6030 c-9 -15 5 -52 18 -47 17 5 17 57 1 57 -7 0 -16 -5 -19
-10z"/>
<path d="M3029 6014 c-1 -11 -2 -30 -3 -44 -1 -14 -5 -38 -9 -55 -52 -198
-111 -298 -247 -411 -38 -33 -70 -66 -70 -75 0 -19 36 -54 43 -42 3 5 22 7 42
5 27 -3 39 -11 45 -28 18 -47 43 -23 95 91 36 79 76 206 80 256 1 14 7 41 13
60 6 19 14 66 17 104 4 39 10 75 13 80 12 18 9 55 -5 66 -10 9 -13 7 -14 -7z"/>
<path d="M3981 5925 c-17 -15 -31 -33 -31 -41 0 -38 94 -42 117 -5 14 22 6 61
-12 61 -8 0 -20 2 -28 6 -8 3 -28 -7 -46 -21z"/>
<path d="M3677 5843 c-8 -10 -30 -47 -48 -83 -37 -74 -46 -162 -18 -168 9 -1
16 3 17 10 1 7 16 56 34 108 31 88 45 150 35 150 -2 0 -11 -8 -20 -17z"/>
<path d="M3527 5829 c-14 -47 -29 -167 -30 -244 -2 -74 -5 -90 -18 -89 -12 1
-15 -11 -16 -56 -2 -106 -80 -219 -140 -204 -11 3 -24 0 -28 -7 -6 -8 -4 -10
6 -4 8 4 7 0 -3 -10 -24 -25 -95 -27 -127 -3 -13 10 -32 18 -42 18 -17 0 -48
37 -86 103 -6 12 -11 47 -9 78 3 69 42 142 92 171 33 19 37 38 9 38 -16 0
-105 -89 -105 -105 0 -5 -6 -21 -13 -35 -16 -30 -14 -127 2 -143 6 -6 11 -19
11 -29 0 -46 103 -121 180 -131 19 -3 36 -6 38 -6 2 -1 -11 -14 -29 -30 -36
-33 -32 -56 7 -41 13 5 49 26 79 45 31 19 59 35 64 35 20 0 86 79 111 134 54
115 71 202 73 361 1 102 -2 148 -10 156 -10 10 -13 9 -16 -2z"/>
<path d="M3796 5799 c-26 -31 -33 -49 -18 -49 12 0 62 54 62 68 0 21 -17 13
-44 -19z"/>
<path d="M3183 5642 c-21 -19 -20 -19 74 -18 l95 1 55 -59 c30 -32 56 -56 59
-53 3 2 -1 11 -8 19 -7 7 -14 20 -16 28 -3 16 -64 71 -71 64 -2 -2 -12 3 -21
11 -9 8 -45 17 -80 20 -54 5 -69 2 -87 -13z"/>
<path d="M3175 5590 c-3 -5 -1 -10 4 -10 6 0 11 5 11 10 0 6 -2 10 -4 10 -3 0
-8 -4 -11 -10z"/>
<path d="M3353 5557 c-7 -7 -31 -30 -53 -52 -38 -38 -40 -39 -40 -16 0 23 -1
23 -13 7 -7 -9 -19 -18 -27 -19 -30 -5 -40 -18 -34 -43 6 -23 -25 -72 -83
-132 -18 -19 -16 -29 8 -45 19 -14 24 -11 78 44 60 61 71 68 71 46 0 -18 35
-49 44 -40 4 5 18 8 29 8 19 0 22 6 21 35 0 19 -4 43 -9 54 -8 18 -7 18 19 1
21 -14 25 -15 21 -3 -3 9 -17 21 -30 28 l-24 13 32 33 c17 19 37 34 44 34 19
0 16 14 -10 38 -27 25 -28 25 -44 9z"/>
<path d="M3099 5533 c-13 -16 -12 -17 4 -4 9 7 17 15 17 17 0 8 -8 3 -21 -13z"/>
<path d="M3052 5408 c2 -15 7 -31 12 -35 4 -4 6 4 4 19 -2 15 -7 31 -12 35 -4
4 -6 -4 -4 -19z"/>
<path d="M3576 5383 c-7 -16 -22 -54 -32 -85 -21 -68 -62 -121 -113 -148 -54
-27 -89 -87 -61 -105 23 -14 60 10 101 66 24 32 70 87 102 120 73 76 83 101
62 146 -19 40 -40 42 -59 6z"/>
<path d="M3365 5280 c-17 -19 -19 -19 -39 -3 -13 11 -16 12 -9 3 10 -14 13
-21 13 -34 0 -12 54 25 56 39 3 20 1 19 -21 -5z"/>
<path d="M4042 5146 c-23 -30 -58 -67 -77 -82 -41 -31 -44 -44 -10 -44 30 0
131 96 141 134 13 53 -11 49 -54 -8z"/>
<path d="M3757 5093 c-26 -25 38 -143 77 -143 28 0 29 23 3 42 -15 11 -27 25
-27 32 0 18 -46 77 -53 69z"/>
<path d="M3274 5055 c-13 -13 -30 -22 -38 -19 -26 10 -126 -51 -126 -77 0 -23
96 5 133 39 13 12 31 22 40 22 16 0 57 37 57 52 0 17 -42 7 -66 -17z"/>
<path d="M2606 4931 c-6 -9 -71 -23 -139 -29 -10 -1 -15 -7 -12 -12 4 -6 21
-8 38 -5 18 4 41 8 52 10 11 2 20 4 20 5 0 1 29 3 65 4 79 4 75 3 60 21 -13
16 -75 21 -84 6z"/>
<path d="M3782 4890 c-46 -11 -123 -53 -119 -65 6 -16 98 -17 141 -2 49 17 65
39 47 61 -15 17 -20 18 -69 6z"/>
<path d="M3114 4776 c-6 -16 17 -66 40 -85 9 -8 16 -20 16 -27 0 -8 5 -14 10
-14 6 0 10 -8 10 -18 0 -22 26 -60 35 -51 3 4 -2 30 -11 59 -22 67 -10 83 54
71 40 -8 43 -7 40 11 -2 15 -18 25 -60 38 -94 29 -127 33 -134 16z"/>
<path d="M3385 4774 c-21 -22 -5 -39 28 -30 19 4 24 11 20 26 -6 24 -26 26
-48 4z"/>
<path d="M3035 4131 c-7 -13 -8 -151 -1 -159 22 -21 46 87 32 142 -6 26 -20
34 -31 17z"/>
<path d="M3141 3746 c-13 -7 -32 -11 -43 -8 -14 3 -17 0 -12 -12 7 -17 34 -22
34 -6 0 6 6 10 14 10 7 0 19 7 26 15 15 18 12 18 -19 1z"/>
<path d="M1955 5900 c-3 -6 1 -7 9 -4 18 7 21 14 7 14 -6 0 -13 -4 -16 -10z"/>
<path d="M1898 5883 c6 -2 18 -2 25 0 6 3 1 5 -13 5 -14 0 -19 -2 -12 -5z"/>
<path d="M1834 5854 c-18 -14 -18 -15 4 -4 12 6 22 13 22 15 0 8 -5 6 -26 -11z"/>
<path d="M1760 5800 c-25 -22 -40 -40 -35 -40 6 0 29 18 50 40 50 51 43 51
-15 0z"/>
<path d="M2154 5349 c-3 -6 0 -15 7 -20 29 -18 57 -5 38 18 -14 16 -35 17 -45
2z"/>
<path d="M1672 4955 c2 -18 9 -29 21 -31 14 -2 15 1 8 10 -6 7 -9 15 -6 18 3
3 -2 11 -11 19 -14 11 -15 10 -12 -16z"/>
<path d="M1879 4824 c-1 -5 -1 -12 0 -16 1 -8 -33 -3 -49 7 -6 3 -10 -1 -10
-10 0 -22 50 -64 77 -65 22 0 73 52 73 75 0 14 -28 13 -50 0 -6 -4 -17 -1 -25
5 -8 7 -16 9 -16 4z"/>
<path d="M2061 4765 c-19 -13 -38 -22 -42 -19 -5 3 -11 -7 -15 -21 -3 -14 -10
-25 -15 -25 -5 0 -9 -6 -9 -12 0 -7 -7 -25 -14 -40 -12 -22 -12 -28 -2 -28 29
0 176 135 176 161 0 17 -45 8 -79 -16z"/>
<path d="M1685 4660 c-3 -5 -12 -7 -20 -3 -8 3 -15 0 -15 -7 0 -6 -4 -9 -8 -6
-13 8 -11 -28 1 -36 6 -3 20 0 31 8 11 8 28 14 37 14 14 0 29 19 29 36 0 8
-49 4 -55 -6z"/>
<path d="M1959 4443 c-9 -10 -19 -27 -23 -38 -6 -17 -3 -16 20 6 14 15 25 32
22 39 -2 8 -9 5 -19 -7z"/>
<path d="M1891 4326 c-8 -10 -9 -16 -1 -21 5 -3 13 1 16 10 9 22 -1 29 -15 11z"/>
<path d="M1876 4258 c3 -5 10 -6 15 -3 13 9 11 12 -6 12 -8 0 -12 -4 -9 -9z"/>
<path d="M1859 4236 c-1 -2 -9 -34 -20 -93 -8 -38 -18 -64 -26 -64 -27 -3 -31
-4 -39 -11 -3 -4 3 -5 15 -3 16 3 24 -2 31 -19 16 -44 64 -37 66 9 3 49 13
125 18 134 3 5 -1 14 -9 21 -8 7 -13 16 -10 19 3 6 -21 12 -26 7z"/>
<path d="M1771 4026 c-7 -8 -8 -17 -3 -20 6 -3 12 3 15 14 6 24 4 25 -12 6z"/>
<path d="M5537 5620 c-67 -43 -84 -50 -128 -50 -46 0 -86 -12 -99 -30 -3 -4
-23 -12 -45 -18 l-40 -11 39 5 c22 3 51 14 64 25 18 13 41 19 79 19 48 0 63 6
134 51 67 43 89 60 77 59 -2 0 -38 -23 -81 -50z"/>
<path d="M2280 4465 c-7 -8 -9 -15 -5 -15 4 0 2 -7 -5 -15 -7 -9 -14 -26 -15
-40 -3 -23 -2 -24 21 -8 13 8 24 24 24 34 0 10 5 21 10 24 15 9 12 35 -4 35
-7 0 -19 -7 -26 -15z"/>
<path d="M2123 4305 c0 -8 4 -12 9 -9 5 3 6 10 3 15 -9 13 -12 11 -12 -6z"/>
<path d="M2156 4291 c-3 -5 2 -15 12 -22 15 -12 16 -12 5 2 -7 9 -10 19 -6 22
3 4 4 7 0 7 -3 0 -8 -4 -11 -9z"/>
<path d="M2181 3976 c-17 -20 -11 -227 7 -249 7 -7 10 -16 7 -19 -10 -10 17
-68 32 -68 8 0 11 4 8 10 -9 14 -15 72 -22 195 -3 61 -9 118 -12 128 -6 17 -8
17 -20 3z"/>
<path d="M2114 3599 c-3 -6 -2 -15 4 -21 7 -7 14 -3 21 11 10 17 9 21 -3 21
-8 0 -18 -5 -22 -11z"/>
</g>
</svg>
